<svg width="930" height="208" viewBox="0 0 930 208" fill="none" xmlns="http://www.w3.org/2000/svg">
<path d="M452.393 189.921C450.771 189.165 448.849 188.688 446.617 188.512L443 188.202C441.181 188.057 439.817 187.518 438.898 186.586C437.978 185.665 437.513 184.608 437.513 183.407C437.513 182.361 437.772 181.388 438.299 180.477C438.815 179.565 439.611 178.83 440.665 178.26C441.719 177.691 443.052 177.411 444.664 177.411C446.276 177.411 447.681 177.712 448.725 178.302C449.768 178.902 450.533 179.658 451.019 180.58C451.505 181.502 451.752 182.486 451.752 183.531H456.124C456.124 181.44 455.638 179.648 454.677 178.136C453.716 176.624 452.362 175.464 450.637 174.626C448.911 173.787 446.916 173.373 444.653 173.373C442.39 173.373 440.355 173.797 438.629 174.646C436.904 175.496 435.56 176.666 434.589 178.157C433.618 179.648 433.142 181.388 433.142 183.386C433.142 185.924 434 187.964 435.736 189.517C437.461 191.07 439.766 191.961 442.659 192.199L446.276 192.51C448.508 192.717 450.202 193.266 451.36 194.146C452.517 195.026 453.096 196.134 453.096 197.48C453.096 198.588 452.796 199.603 452.207 200.546C451.618 201.488 450.688 202.244 449.438 202.824C448.188 203.404 446.575 203.694 444.612 203.694C442.504 203.694 440.82 203.362 439.59 202.71C438.361 202.058 437.482 201.229 436.955 200.245C436.438 199.262 436.17 198.278 436.17 197.294H431.799C431.799 199.293 432.305 201.084 433.318 202.658C434.33 204.232 435.788 205.475 437.689 206.365C439.59 207.256 441.905 207.712 444.612 207.712C447.175 207.712 449.417 207.277 451.35 206.417C453.282 205.558 454.79 204.346 455.855 202.793C456.929 201.239 457.457 199.469 457.457 197.47C457.457 195.71 457.022 194.198 456.144 192.934C455.266 191.671 454.015 190.656 452.393 189.89V189.921ZM476.749 192.313H491.308V188.378H476.749V178.219H492.249V174.284H472.378V206.945H492.693V203.01H476.749V192.323V192.313ZM520.903 194.778H531.485V200.266C530.71 201.022 529.8 201.695 528.736 202.265C526.814 203.29 524.592 203.808 522.06 203.808C520.273 203.808 518.63 203.528 517.132 202.958C515.623 202.389 514.331 201.55 513.226 200.432C512.12 199.313 511.272 197.915 510.663 196.227C510.053 194.539 509.743 192.582 509.743 190.345C509.743 188.378 510.022 186.607 510.59 185.023C511.159 183.438 511.954 182.082 512.977 180.953C514 179.824 515.23 178.944 516.656 178.333C518.082 177.722 519.642 177.411 521.347 177.411C523.052 177.411 524.572 177.722 526.008 178.333C527.455 178.944 528.663 179.855 529.645 181.056C530.627 182.268 531.226 183.78 531.433 185.592H535.897C535.69 183.179 534.946 181.056 533.665 179.213C532.384 177.38 530.689 175.951 528.581 174.916C526.462 173.89 524.055 173.373 521.347 173.373C518.847 173.373 516.605 173.828 514.61 174.74C512.616 175.651 510.931 176.883 509.547 178.457C508.162 180.021 507.108 181.781 506.375 183.739C505.641 185.696 505.279 187.715 505.279 189.797V190.78C505.279 193.224 505.682 195.482 506.488 197.553C507.294 199.624 508.431 201.426 509.898 202.948C511.366 204.47 513.133 205.651 515.189 206.479C517.245 207.318 519.529 207.732 522.06 207.732C525.036 207.732 527.671 207.194 529.965 206.127C532.259 205.05 534.13 203.559 535.587 201.654V194.767H538.356V191.101H520.903V194.767V194.778ZM574.202 194.508C574.202 196.362 573.851 197.977 573.148 199.365C572.446 200.753 571.423 201.83 570.069 202.586C568.715 203.342 567.052 203.725 565.088 203.725C563.125 203.725 561.462 203.342 560.087 202.565C558.713 201.788 557.68 200.711 556.987 199.324C556.285 197.936 555.944 196.331 555.944 194.519V174.294H551.573V193.98C551.573 196.724 552.089 199.137 553.112 201.208C554.135 203.279 555.654 204.895 557.669 206.044C559.684 207.194 562.154 207.763 565.099 207.763C568.044 207.763 570.565 207.194 572.549 206.044C574.544 204.895 576.042 203.29 577.054 201.208C578.067 199.137 578.573 196.724 578.573 193.98V174.294H574.202V194.519V194.508ZM613.748 191.847C615.36 191.112 616.559 190.076 617.365 188.72C618.171 187.363 618.574 185.748 618.574 183.863V183.148C618.574 181.274 618.171 179.648 617.365 178.292C616.559 176.935 615.36 175.899 613.748 175.185C612.147 174.47 610.131 174.108 607.724 174.108H595.003V206.945H599.374V192.945H607.724C608.054 192.945 608.354 192.924 608.674 192.903L614.864 206.945H619.731L613.014 192.127C613.262 192.033 613.521 191.961 613.748 191.847V191.847ZM608.571 189.051H599.374V177.96H608.571C610.421 177.96 611.795 178.457 612.725 179.462C613.645 180.456 614.11 181.812 614.11 183.511C614.11 185.209 613.665 186.566 612.766 187.56C611.867 188.554 610.472 189.061 608.571 189.061V189.051ZM661.199 178.789C659.804 177.163 658.047 175.858 655.949 174.874C653.852 173.89 651.372 173.404 648.52 173.404C645.668 173.404 643.188 173.89 641.09 174.874C638.992 175.858 637.246 177.163 635.841 178.789C634.446 180.414 633.402 182.206 632.72 184.184C632.038 186.151 631.697 188.109 631.697 190.045V191.029C631.697 192.82 632.028 194.684 632.699 196.621C633.371 198.557 634.384 200.38 635.758 202.078C637.122 203.777 638.868 205.154 640.976 206.189C643.084 207.225 645.606 207.753 648.52 207.753C651.434 207.753 653.955 207.235 656.063 206.189C658.171 205.143 659.918 203.777 661.282 202.078C662.646 200.38 663.668 198.557 664.34 196.621C665.012 194.684 665.342 192.82 665.342 191.029V190.045C665.342 188.109 665.002 186.151 664.32 184.184C663.638 182.216 662.594 180.414 661.199 178.789V178.789ZM660.041 195.523C659.473 197.087 658.657 198.495 657.582 199.728C656.507 200.97 655.206 201.944 653.676 202.658C652.147 203.373 650.421 203.735 648.52 203.735C646.618 203.735 644.893 203.373 643.363 202.658C641.834 201.944 640.532 200.97 639.458 199.728C638.383 198.485 637.567 197.087 636.998 195.523C636.43 193.959 636.151 192.313 636.151 190.584C636.151 188.761 636.43 187.063 636.998 185.489C637.567 183.915 638.383 182.517 639.458 181.305C640.532 180.093 641.834 179.151 643.363 178.468C644.893 177.784 646.618 177.442 648.52 177.442C650.421 177.442 652.147 177.784 653.676 178.468C655.206 179.151 656.507 180.104 657.582 181.305C658.657 182.517 659.473 183.904 660.041 185.489C660.61 187.073 660.889 188.771 660.889 190.584C660.889 192.396 660.61 193.959 660.041 195.523ZM702.243 192.976C701.365 191.712 700.114 190.697 698.492 189.931C696.87 189.165 694.947 188.699 692.715 188.523L689.099 188.212C687.28 188.067 685.916 187.529 684.997 186.597C684.077 185.675 683.612 184.619 683.612 183.418C683.612 182.372 683.87 181.398 684.397 180.487C684.914 179.576 685.709 178.84 686.763 178.271C687.817 177.701 689.15 177.422 690.762 177.422C692.374 177.422 693.78 177.722 694.823 178.312C695.867 178.913 696.632 179.669 697.117 180.59C697.603 181.512 697.851 182.496 697.851 183.542H702.222C702.222 181.45 701.736 179.658 700.775 178.147C699.814 176.635 698.461 175.475 696.735 174.636C695.01 173.797 693.015 173.383 690.752 173.383C688.489 173.383 686.454 173.808 684.728 174.657C683.002 175.506 681.659 176.676 680.687 178.167C679.716 179.658 679.241 181.398 679.241 183.397C679.241 185.934 680.099 187.974 681.835 189.527C683.56 191.081 685.864 191.971 688.758 192.209L692.374 192.52C694.606 192.727 696.301 193.276 697.459 194.156C698.616 195.036 699.195 196.145 699.195 197.491C699.195 198.599 698.895 199.614 698.306 200.556C697.717 201.498 696.787 202.254 695.536 202.834C694.286 203.414 692.674 203.704 690.711 203.704C688.603 203.704 686.918 203.373 685.689 202.72C684.459 202.068 683.581 201.239 683.054 200.256C682.537 199.272 682.269 198.288 682.269 197.304H677.898C677.898 199.303 678.404 201.094 679.416 202.669C680.429 204.243 681.886 205.485 683.787 206.376C685.689 207.266 688.003 207.722 690.711 207.722C693.273 207.722 695.516 207.287 697.448 206.428C699.381 205.568 700.889 204.356 701.953 202.803C703.028 201.25 703.555 199.479 703.555 197.48C703.555 195.72 703.121 194.208 702.243 192.945V192.976Z" fill="#E20039"/>
<path d="M929.142 38.8126H913.642C913.25 38.8126 912.888 39.0197 912.681 39.3511L904.983 51.6742C904.725 52.0988 904.094 52.0574 903.888 51.6121C899.269 41.8882 892.397 37.9945 881.795 37.9945C864.528 37.9945 854.422 51.7674 854.422 71.6397V81.0633C854.422 102.116 864.518 115.278 881.795 115.278C893.999 115.278 899.589 109.334 903.857 101.557C904.084 101.132 904.683 101.122 904.942 101.526L912.681 113.942C912.888 114.274 913.25 114.481 913.653 114.481H929.153C929.504 114.481 929.783 114.201 929.783 113.849V39.434C929.783 39.0819 929.504 38.8023 929.153 38.8023L929.142 38.8126ZM892.097 94.8051C884.812 94.8051 880.741 91.0046 879.759 85.0916C879.346 82.6166 879.243 81.2497 879.243 76.4136C879.243 73.2966 879.501 70.6767 879.904 68.1603C880.803 62.5993 884.895 58.6849 892.087 58.6539C899.858 58.6849 904.311 63.3242 904.322 69.5065V83.6936C904.322 91.6156 898.587 94.8051 892.087 94.8051H892.097ZM846.042 7.76667H821.893C821.541 7.76667 821.262 8.04627 821.262 8.39836V49.9138C821.262 50.5662 820.384 50.7836 820.074 50.2037C815.465 41.5051 808.759 37.9842 798.684 37.9842C781.417 37.9842 771.311 51.7571 771.311 71.6294V81.0529C771.311 102.106 781.407 115.268 798.684 115.268C810.888 115.268 816.478 109.324 820.746 101.547C820.973 101.122 821.572 101.112 821.831 101.516L829.57 113.932C829.777 114.263 830.139 114.47 830.542 114.47H846.042C846.393 114.47 846.672 114.191 846.672 113.839V8.39836C846.672 8.04627 846.393 7.76667 846.042 7.76667ZM821.211 84.4599C821.211 90.0933 816.571 94.8051 808.997 94.8051C801.422 94.8051 797.64 91.0046 796.659 85.0916C796.245 82.6166 796.142 81.2497 796.142 76.4136C796.142 73.2966 796.4 70.6767 796.803 68.1603C797.702 62.5993 801.794 58.6849 808.986 58.6539C816.726 58.6849 821.159 63.2932 821.2 69.4444V84.4703L821.211 84.4599ZM395.24 68.6884C385.723 67.0729 382.664 65.6749 382.757 61.4292V61.2428C382.84 57.5872 385.836 53.7971 392.532 53.9214C398.722 54.0767 401.708 57.3801 401.781 61.2117L401.801 63.8627C401.801 64.2044 402.08 64.484 402.432 64.484H424.876C425.217 64.484 425.496 64.2148 425.506 63.8731L425.537 62.7857C425.878 47.3663 412.166 36.9176 392.997 36.493C374.108 36.0684 359.125 45.8855 358.794 60.6421L358.773 61.6673C358.432 77.066 372.434 81.6121 390.063 84.9156V84.9363C398.474 86.5621 403.682 86.8313 403.568 91.7813V92.1748C403.444 97.5493 398.329 99.2476 391.644 99.1027C385.743 98.968 380.773 96.3067 380.308 90.9529L380.184 89.3788C380.163 89.0474 379.884 88.7989 379.554 88.7989H356.903C356.562 88.7989 356.273 89.0785 356.273 89.4306C356.252 106.3 370.512 115.744 390.703 116.2C409.386 116.614 427.221 110.784 427.624 92.6512L427.666 90.6525C428.007 75.2538 413.22 71.7329 395.25 68.6884H395.24ZM471.737 37.4353C451.164 37.4353 433.979 49.1682 433.979 71.2359V81.5811C433.979 103.649 450.688 115.278 471.737 115.278C490.926 115.278 505.868 106.952 508.793 91.4706C508.865 91.0875 508.555 90.7147 508.162 90.7147H483.156C482.928 90.7147 482.732 90.8389 482.618 91.0357C480.696 94.3598 476.914 96.3584 471.644 96.3792C464.359 96.3481 459.957 92.2576 459.43 86.6553C459.43 86.5724 459.42 85.4437 459.41 83.7661C459.41 83.414 459.689 83.1344 460.04 83.1344H508.689C509.041 83.1344 509.32 82.8548 509.32 82.5027V71.2359C509.32 49.1682 492.301 37.4353 471.727 37.4353H471.737ZM483.393 70.5835H460.019C459.668 70.5835 459.389 70.3039 459.389 69.9518V67.57C459.389 61.3877 463.884 56.7484 471.655 56.7174C478.847 56.7484 483.228 60.7353 483.838 66.2238C483.838 66.2238 483.931 67.746 484.013 69.9207C484.024 70.2728 483.745 70.5731 483.383 70.5731L483.393 70.5835ZM677.019 38.8126H652.87C652.519 38.8126 652.24 39.0922 652.24 39.4443V82.5752C652.24 89.4099 646.753 95.0433 639.923 95.064C632.235 95.0847 627.698 89.3995 627.698 81.5396V39.434C627.698 39.0819 627.419 38.8023 627.068 38.8023H602.919C602.568 38.8023 602.289 39.0819 602.289 39.434V89.296C602.289 104.177 613.066 115.288 628.525 115.288C641.049 115.288 648.055 109.893 653.129 102.717C653.387 102.354 653.935 102.365 654.172 102.748L661.147 113.942C661.354 114.274 661.716 114.481 662.119 114.481H677.009C677.36 114.481 677.639 114.201 677.639 113.849V39.434C677.639 39.0819 677.36 38.8023 677.009 38.8023L677.019 38.8126ZM737.335 37.9945C724.811 37.9945 717.805 43.3898 712.731 50.5662C712.473 50.939 711.925 50.9286 711.688 50.5455L704.568 39.1129C704.454 38.9265 704.248 38.8126 704.031 38.8126H688.851C688.5 38.8126 688.221 39.0922 688.221 39.4443V113.849C688.221 114.201 688.5 114.481 688.851 114.481H713C713.351 114.481 713.63 114.201 713.63 113.849V71.0184C713.63 64.132 719.066 58.25 725.948 58.2293C733.636 58.2086 738.172 63.8938 738.172 71.7536V113.849C738.172 114.201 738.451 114.481 738.802 114.481H762.951C763.303 114.481 763.582 114.201 763.582 113.849V63.987C763.582 49.106 752.804 37.9945 737.345 37.9945H737.335ZM591.759 38.8126H576.259C575.866 38.8126 575.505 39.0197 575.298 39.3511L567.6 51.6846C567.341 52.0988 566.721 52.0677 566.515 51.6224C561.896 41.8882 555.024 37.9945 544.412 37.9945C527.145 37.9945 517.039 51.7674 517.039 71.6397V81.0633C517.039 102.116 527.134 115.278 544.412 115.278C556.006 115.278 561.72 109.914 565.936 102.717C566.256 102.168 567.104 102.396 567.104 103.038V107.822C567.104 116.49 565.306 123.024 553.722 123.024H530.162C529.749 123.024 529.449 123.407 529.552 123.811L534.14 141.705C534.213 141.985 534.461 142.182 534.75 142.182H558.734C578.109 142.182 592.389 137.687 592.389 114.491V39.434C592.389 39.0819 592.11 38.8023 591.759 38.8023V38.8126ZM566.928 84.3874C566.928 90.1762 562.371 94.8051 554.714 94.8051C547.057 94.8051 543.358 91.0046 542.376 85.0916C541.963 82.6166 541.859 81.2497 541.859 76.4136C541.859 73.2966 542.118 70.6767 542.521 68.1603C543.42 62.5993 547.512 58.6849 554.704 58.6539C562.474 58.6849 566.907 63.3242 566.918 69.5065V84.3978L566.928 84.3874ZM241.872 95.3436H235.621C233.626 95.3436 232.014 93.7281 232.014 91.7295V8.39836C232.014 8.04627 231.735 7.76667 231.384 7.76667H207.235C206.884 7.76667 206.605 8.04627 206.605 8.39836V101.029C206.605 106.31 209.581 111.281 214.417 113.373C216.07 114.087 217.878 114.47 219.759 114.47H241.862C242.213 114.47 242.492 114.191 242.492 113.839V95.9649C242.492 95.6128 242.213 95.3332 241.862 95.3332L241.872 95.3436ZM153.77 122.703H33.9553C33.232 122.703 32.643 122.113 32.643 121.388V1.31516C32.6533 0.590267 32.0643 0 31.341 0H1.31233C0.589 0 0 0.590267 0 1.31516V100.459C0 109.52 3.46167 118.25 9.68233 124.826L17.484 133.09C19.0443 134.736 20.646 136.341 22.289 137.905L30.535 145.723C37.107 151.957 45.8077 155.427 54.8493 155.427H153.781C154.504 155.427 155.093 154.836 155.093 154.111V124.018C155.093 123.293 154.504 122.703 153.781 122.703H153.77ZM153.77 81.8089H77.5413C75.02 81.8089 73.0257 79.51 73.5423 76.89C73.9143 74.9846 75.609 73.628 77.5517 73.628H118.358C133.662 73.628 146.785 64.2459 152.303 50.9079C154.587 45.3988 153.378 39.0508 149.286 34.7222L137.619 22.3576C136.059 20.7008 134.447 19.0853 132.794 17.5216L124.558 9.71351C117.986 3.46911 109.275 0 100.233 0H42.1187C41.3953 0 40.8063 0.590267 40.8063 1.31516V31.4084C40.8063 32.1333 41.3953 32.7236 42.1187 32.7236H118.306C120.476 32.7236 122.295 34.4012 122.429 36.5655C122.574 38.9369 120.693 40.9044 118.358 40.9044H77.5517C57.2673 40.9044 40.8167 57.3801 40.8167 77.7185V113.217C40.8167 113.942 41.4057 114.532 42.129 114.532H153.781C154.504 114.532 155.093 113.942 155.093 113.217V83.124C155.093 82.3992 154.504 81.8089 153.781 81.8089H153.77ZM320.798 38.823H305.298C304.906 38.823 304.544 39.0301 304.337 39.3615L296.639 51.6846C296.381 52.1092 295.75 52.0677 295.544 51.6224C290.925 41.8986 284.053 38.0049 273.451 38.0049C256.184 38.0049 246.078 51.7778 246.078 71.6501V81.0736C246.078 102.126 256.174 115.288 273.451 115.288C285.655 115.288 291.245 109.344 295.513 101.567C295.74 101.143 296.339 101.132 296.598 101.536L304.337 113.953C304.544 114.284 304.906 114.491 305.309 114.491H320.809C321.16 114.491 321.439 114.211 321.439 113.859V39.434C321.439 39.0819 321.16 38.8023 320.809 38.8023L320.798 38.823ZM283.753 94.8155C276.468 94.8155 272.397 91.015 271.415 85.102C271.002 82.627 270.899 81.2601 270.899 76.424C270.899 73.307 271.157 70.687 271.56 68.1706C272.459 62.6097 276.551 58.6953 283.743 58.6642C291.514 58.6953 295.967 63.3346 295.978 69.5168V83.704C295.978 91.626 290.243 94.8155 283.743 94.8155H283.753Z" fill="#E20039"/>
</svg>
