<svg width="300" height="43" viewBox="0 0 300 43" fill="none" xmlns="http://www.w3.org/2000/svg">
<g clip-path="url(#clip0_2921_16897)">
<path d="M122.89 9.0144V34.4073" stroke="#153D8A" stroke-width="0.58" stroke-miterlimit="10"/>
<path d="M139.475 11.2465L138.48 12.0473C138.266 11.5123 137.909 11.0465 137.449 10.7006C136.953 10.4134 136.383 10.2784 135.811 10.3124C135.204 10.276 134.6 10.4331 134.088 10.7613C133.888 10.8923 133.724 11.0728 133.614 11.2853C133.503 11.4978 133.449 11.7351 133.457 11.9745C133.453 12.2509 133.542 12.5205 133.712 12.7388C133.933 12.9805 134.213 13.1604 134.525 13.2605C135.037 13.4421 135.565 13.5761 136.102 13.6609C137.056 13.7519 137.973 14.0769 138.771 14.6072C139.031 14.8187 139.237 15.0879 139.374 15.3933C139.511 15.6988 139.575 16.032 139.56 16.3664C139.565 16.8772 139.403 17.3756 139.099 17.7859C138.773 18.2214 138.325 18.5506 137.813 18.7322C137.103 18.9889 136.349 19.1019 135.595 19.0644C134.841 19.0269 134.102 18.8397 133.421 18.5138C132.777 18.1661 132.243 17.6449 131.88 17.0094L132.875 16.2086C133.114 16.7537 133.511 17.2144 134.015 17.5311C134.592 17.8539 135.247 18.0132 135.908 17.9921C136.533 18.0245 137.155 17.8817 137.704 17.5796C137.918 17.4616 138.093 17.2844 138.209 17.0693C138.326 16.8542 138.377 16.6101 138.359 16.3664C138.355 16.1643 138.301 15.9664 138.201 15.7905C138.102 15.6147 137.96 15.4665 137.788 15.3594C137.149 15.0247 136.454 14.807 135.738 14.7164C134.78 14.6109 133.858 14.2872 133.045 13.7701C132.783 13.5656 132.575 13.3012 132.438 12.9992C132.301 12.6971 132.238 12.3664 132.256 12.0352C132.249 11.5334 132.397 11.0417 132.681 10.6278C132.984 10.1805 133.404 9.82409 133.894 9.59655C134.484 9.32964 135.127 9.19705 135.774 9.20833C136.511 9.16681 137.244 9.33516 137.888 9.69384C138.532 10.0525 139.062 10.5868 139.414 11.2344" fill="#153D8A"/>
<path d="M149.412 15.3838C149.452 15.8861 149.388 16.3913 149.223 16.8675C149.058 17.3436 148.796 17.7803 148.453 18.1499C147.654 18.7513 146.681 19.0766 145.681 19.0766C144.681 19.0766 143.708 18.7513 142.909 18.1499C142.568 17.7818 142.307 17.347 142.142 16.8731C141.977 16.3992 141.912 15.8962 141.95 15.3959V9.31763H143.103V14.9955C143.035 15.784 143.26 16.5698 143.734 17.2036C144.287 17.6508 144.976 17.8947 145.687 17.8947C146.398 17.8947 147.088 17.6508 147.64 17.2036C148.105 16.5657 148.325 15.782 148.259 14.9955V9.31763H149.412V15.3838Z" fill="#153D8A"/>
<path d="M158.171 10.1548C158.448 10.432 158.668 10.7611 158.819 11.1233C158.969 11.4855 159.046 11.8737 159.046 12.2658C159.046 12.6579 158.969 13.0462 158.819 13.4084C158.668 13.7706 158.448 14.0997 158.171 14.3769C157.521 14.9225 156.69 15.2039 155.842 15.1655H153.646V18.8779H152.493V9.31769H155.842C156.69 9.27922 157.521 9.56067 158.171 10.1063V10.1548ZM157.31 13.5761C157.647 13.2037 157.833 12.7194 157.833 12.2173C157.833 11.7152 157.647 11.231 157.31 10.8585C156.837 10.5122 156.256 10.3484 155.672 10.3975H153.646V14.0372H155.745C156.328 14.0862 156.91 13.9225 157.383 13.5761" fill="#153D8A"/>
<path d="M168.253 17.8101V18.8899H161.362V9.37817H168.035V10.4579H162.514V13.5274H166.809V14.6072H162.514V17.8101H168.253Z" fill="#153D8A"/>
<path d="M174.065 14.9348H171.784V18.8778H170.571V9.3175H174.211C175.053 9.27693 175.881 9.54431 176.54 10.0697C176.834 10.3187 177.067 10.6321 177.221 10.9855C177.374 11.339 177.444 11.723 177.426 12.1079C177.442 12.7237 177.24 13.3254 176.855 13.8064C176.461 14.2842 175.919 14.6171 175.315 14.7528L177.996 18.8292H176.625L174.065 14.9348ZM171.784 13.855H174.211C175.557 13.855 176.225 13.2848 176.225 12.1565C176.225 11.0281 175.557 10.4458 174.211 10.4458H171.784V13.855Z" fill="#153D8A"/>
<path d="M181.441 9.37817H180.289V18.8899H181.441V9.37817Z" fill="#153D8A"/>
<path d="M192.094 18.8899H190.662L186.683 12.5204L185.676 10.6399H185.664L185.724 12.1686V18.8899H184.62V9.37817H186.052L190.019 15.7112L191.038 17.616H191.05L191.002 16.0873V9.37817H192.094V18.8899Z" fill="#153D8A"/>
<path d="M201.97 10.4579H198.645V18.8899H197.493V10.4579H194.181V9.37817H201.97V10.4579Z" fill="#153D8A"/>
<path d="M210.947 17.8101V18.8899H204.056V9.37817H210.729V10.4579H205.209V13.5274H209.504V14.6072H205.209V17.8101H210.947Z" fill="#153D8A"/>
<path d="M220.787 18.8899H219.356L215.376 12.5204L214.369 10.6399H214.357L214.418 12.1686V18.8899H213.326V9.37817H214.745L218.713 15.7112L219.732 17.616H219.756L219.695 16.0873V9.37817H220.787V18.8899Z" fill="#153D8A"/>
<path d="M230.554 10.6157C231.376 11.6015 231.826 12.8444 231.826 14.128C231.826 15.4116 231.376 16.6546 230.554 17.6403C229.592 18.4932 228.331 18.9295 227.047 18.8536H223.966V9.31757H227.047C227.683 9.27384 228.322 9.35873 228.924 9.56718C229.527 9.77563 230.081 10.1034 230.554 10.5308V10.6157ZM229.704 16.7425C230.294 15.966 230.613 15.018 230.613 14.0431C230.613 13.0682 230.294 12.1202 229.704 11.3437C229.374 11.0082 228.976 10.747 228.537 10.5775C228.097 10.4081 227.627 10.3342 227.157 10.361H225.131V17.8102H227.157C227.626 17.8385 228.096 17.7665 228.535 17.5992C228.974 17.4318 229.373 17.1729 229.704 16.8396" fill="#153D8A"/>
<path d="M241.327 17.8101V18.8899H234.436V9.37817H241.109V10.4579H235.589V13.5274H239.884V14.6072H235.589V17.8101H241.327Z" fill="#153D8A"/>
<path d="M251.167 18.8899H249.735L245.768 12.5204L244.748 10.6399H244.736L244.797 12.1686V18.8899H243.705V9.37817H245.125L249.092 15.7112L250.111 17.616H250.135L250.075 16.0873V9.37817H251.167V18.8899Z" fill="#153D8A"/>
<path d="M260.557 18.3439C259.855 18.8038 259.031 19.0406 258.192 19.0233C257.371 19.0447 256.561 18.839 255.85 18.4288C255.183 18.0271 254.651 17.4358 254.321 16.7303C253.961 15.9122 253.775 15.028 253.775 14.134C253.775 13.24 253.961 12.3559 254.321 11.5377C254.647 10.8265 255.18 10.2303 255.85 9.82705C256.558 9.44478 257.35 9.24463 258.155 9.24463C258.96 9.24463 259.752 9.44478 260.46 9.82705C261.089 10.2119 261.574 10.7912 261.843 11.477L260.715 12.0109C260.535 11.524 260.214 11.1018 259.793 10.7976C259.329 10.5053 258.788 10.3614 258.24 10.3851C257.639 10.3706 257.046 10.5262 256.529 10.834C256.026 11.1513 255.629 11.6118 255.389 12.1564C255.107 12.7982 254.971 13.4941 254.989 14.1947C254.923 15.2028 255.229 16.2001 255.85 16.9972C256.351 17.5415 257.028 17.8928 257.761 17.9904C258.495 18.0879 259.24 17.9254 259.866 17.5311C260.35 17.1723 260.703 16.6654 260.873 16.0873L262.086 16.5241C261.808 17.2939 261.295 17.9563 260.618 18.4167" fill="#153D8A"/>
<path d="M265.471 9.37817H264.318V18.8899H265.471V9.37817Z" fill="#153D8A"/>
<path d="M274 16.2452H269.693L268.674 18.8779H267.46L271.161 9.36621H272.532L276.172 18.8779H274.958L274 16.2452ZM273.575 15.1655L272.301 11.7441L271.852 10.5309L271.44 11.8048L270.142 15.2261L273.575 15.1655Z" fill="#153D8A"/>
<path d="M289.202 10.6157C290.024 11.6015 290.474 12.8444 290.474 14.128C290.474 15.4116 290.024 16.6546 289.202 17.6403C288.24 18.4932 286.979 18.9295 285.696 18.8536H282.65V9.31757H285.72C286.356 9.27384 286.994 9.35873 287.597 9.56718C288.199 9.77563 288.753 10.1034 289.226 10.5308L289.202 10.6157ZM288.377 16.7425C288.966 15.966 289.285 15.018 289.285 14.0431C289.285 13.0682 288.966 12.1202 288.377 11.3437C288.047 11.0082 287.648 10.747 287.209 10.5775C286.77 10.4081 286.299 10.3342 285.829 10.361H283.803V17.8102H285.829C286.298 17.8385 286.768 17.7665 287.208 17.5992C287.647 17.4318 288.045 17.1729 288.377 16.8396" fill="#153D8A"/>
<path d="M300 17.8101V18.8899H293.109V9.37817H299.782V10.4579H294.261V13.5274H298.556V14.6072H294.261V17.8101H300Z" fill="#153D8A"/>
<path d="M139.475 26.6183L138.48 27.4191C138.266 26.8841 137.91 26.4183 137.449 26.0724C136.951 25.791 136.383 25.6565 135.811 25.6842C135.204 25.6478 134.601 25.8049 134.088 26.1331C133.888 26.2641 133.724 26.4446 133.614 26.6571C133.503 26.8696 133.45 27.1069 133.457 27.3463C133.453 27.6226 133.543 27.8923 133.712 28.1106C133.933 28.3523 134.213 28.5321 134.525 28.6323C135.037 28.8139 135.565 28.9479 136.102 29.0327C137.056 29.1237 137.973 29.4487 138.771 29.979C139.031 30.1905 139.237 30.4597 139.374 30.7651C139.511 31.0706 139.575 31.4038 139.56 31.7382C139.565 32.2489 139.403 32.7474 139.099 33.1576C138.77 33.5931 138.324 33.9257 137.813 34.1161C137.196 34.3449 136.542 34.456 135.884 34.4437C135.041 34.4642 134.207 34.2723 133.457 33.8856C132.816 33.5391 132.283 33.0228 131.917 32.3933L132.911 31.5805C133.151 32.1255 133.548 32.5862 134.052 32.9029C134.629 33.2257 135.283 33.385 135.945 33.3639C136.568 33.3938 137.188 33.2556 137.74 32.9635C137.951 32.8422 138.124 32.6644 138.24 32.4501C138.356 32.2358 138.41 31.9934 138.395 31.7503C138.392 31.5483 138.338 31.3503 138.238 31.1744C138.138 30.9986 137.996 30.8504 137.825 30.7433C137.185 30.4087 136.491 30.1909 135.775 30.1003C134.816 29.9948 133.895 29.6711 133.081 29.154C132.82 28.9496 132.612 28.6851 132.475 28.3831C132.337 28.081 132.275 27.7504 132.293 27.4191C132.285 26.9173 132.434 26.4256 132.717 26.0117C133.021 25.5644 133.44 25.208 133.931 24.9805C134.522 24.7177 135.164 24.5893 135.811 24.6044C136.546 24.5602 137.279 24.7262 137.923 25.0828C138.568 25.4394 139.098 25.972 139.451 26.6183" fill="#153D8A"/>
<path d="M148.587 33.1819V34.2617H141.695V24.75H148.368V25.8298H142.848V28.8992H147.143V29.979H142.848V33.1819H148.587Z" fill="#153D8A"/>
<path d="M158.171 29.4571V34.31H157.31V33.024C157.022 33.4912 156.599 33.8594 156.097 34.0795C155.525 34.3363 154.903 34.4607 154.277 34.4435C153.456 34.4649 152.646 34.2591 151.935 33.849C151.271 33.4433 150.74 32.8531 150.407 32.1505C150.043 31.3333 149.854 30.4487 149.854 29.5541C149.854 28.6596 150.043 27.775 150.407 26.9578C150.75 26.247 151.294 25.6523 151.972 25.2472C152.674 24.8384 153.476 24.6326 154.289 24.6527C155.099 24.6163 155.905 24.8008 156.618 25.1865C157.262 25.5756 157.776 26.1451 158.099 26.8244L157.043 27.4067C156.846 26.8978 156.482 26.4704 156.012 26.1935C155.487 25.8985 154.891 25.7517 154.289 25.7689C153.697 25.7499 153.112 25.9084 152.611 26.2241C152.109 26.5397 151.713 26.998 151.474 27.5402C151.184 28.1838 151.043 28.8847 151.062 29.5906C151 30.5981 151.297 31.595 151.899 32.4052C152.199 32.7471 152.574 33.0147 152.995 33.1873C153.416 33.3599 153.872 33.4327 154.325 33.4001C155.054 33.4352 155.772 33.2118 156.351 32.7692C156.617 32.5496 156.827 32.2703 156.964 31.954C157.101 31.6377 157.162 31.2934 157.14 30.9494V30.6218H154.046V29.542L158.171 29.4571Z" fill="#153D8A"/>
<path d="M167.877 30.7068C167.918 31.2091 167.853 31.7143 167.688 32.1905C167.523 32.6667 167.261 33.1034 166.919 33.473C166.123 34.082 165.149 34.412 164.146 34.412C163.144 34.412 162.17 34.082 161.374 33.473C161.033 33.1048 160.772 32.6701 160.607 32.1961C160.442 31.7222 160.377 31.2193 160.416 30.7189V24.762H161.568V30.4399C161.501 31.2245 161.726 32.0063 162.199 32.6358C162.456 32.8841 162.764 33.0743 163.101 33.1936C163.438 33.3129 163.796 33.3585 164.152 33.3274C164.508 33.3561 164.866 33.3094 165.203 33.1902C165.54 33.0711 165.847 32.8821 166.106 32.6358C166.569 32.0016 166.788 31.2224 166.725 30.4399V24.762H167.877V30.7068Z" fill="#153D8A"/>
<path d="M174.053 30.3064H171.772V34.2616H170.619V24.7498H174.259C175.1 24.7047 175.928 24.9679 176.588 25.4899C176.882 25.7389 177.115 26.0523 177.269 26.4057C177.422 26.7592 177.493 27.1432 177.474 27.5281C177.49 28.1439 177.288 28.7456 176.904 29.2267C176.509 29.7044 175.967 30.0373 175.363 30.173L178.044 34.2616H176.673L174.053 30.3064ZM171.772 29.2267H174.198C175.545 29.2267 176.212 28.6564 176.212 27.5281C176.212 26.3998 175.545 25.8296 174.198 25.8296H171.772V29.2267Z" fill="#153D8A"/>
<path d="M185.991 25.1987C186.658 25.6037 187.194 26.1938 187.532 26.8973C187.884 27.7197 188.065 28.605 188.065 29.4996C188.065 30.3943 187.884 31.2796 187.532 32.102C187.197 32.8079 186.661 33.399 185.991 33.8005C185.285 34.2121 184.478 34.418 183.662 34.395C182.841 34.4164 182.031 34.2107 181.32 33.8005C180.656 33.3949 180.125 32.8047 179.791 32.102C179.431 31.2816 179.246 30.3955 179.246 29.4996C179.246 28.6038 179.431 27.7177 179.791 26.8973C180.128 26.1969 180.659 25.6076 181.32 25.1987C182.031 24.7886 182.841 24.5829 183.662 24.6043C184.478 24.5813 185.285 24.7872 185.991 25.1987ZM181.32 26.691C180.759 27.5202 180.459 28.4984 180.459 29.4996C180.459 30.5009 180.759 31.4791 181.32 32.3083C181.621 32.6262 181.985 32.8794 182.387 33.0524C182.79 33.2254 183.223 33.3147 183.662 33.3147C184.1 33.3147 184.533 33.2254 184.936 33.0524C185.338 32.8794 185.702 32.6262 186.003 32.3083C186.564 31.4791 186.864 30.5009 186.864 29.4996C186.864 28.4984 186.564 27.5202 186.003 26.691C185.702 26.3731 185.338 26.1199 184.936 25.9469C184.533 25.7739 184.1 25.6846 183.662 25.6846C183.223 25.6846 182.79 25.7739 182.387 25.9469C181.985 26.1199 181.621 26.3731 181.32 26.691Z" fill="#153D8A"/>
<path d="M197.056 26.6183L196.061 27.4191C195.843 26.8866 195.487 26.4217 195.03 26.0724C194.532 25.791 193.964 25.6565 193.392 25.6842C192.785 25.6478 192.182 25.8049 191.669 26.1331C191.467 26.2624 191.302 26.4425 191.192 26.6554C191.081 26.8683 191.028 27.1065 191.038 27.3463C191.03 27.6212 191.116 27.8907 191.281 28.1106C191.507 28.3468 191.785 28.5256 192.094 28.6323C192.611 28.8121 193.143 28.9461 193.683 29.0327C194.637 29.1261 195.553 29.451 196.352 29.979C196.612 30.1905 196.818 30.4597 196.955 30.7651C197.092 31.0706 197.156 31.4038 197.141 31.7382C197.146 32.2489 196.984 32.7474 196.68 33.1576C196.349 33.5908 195.904 33.9227 195.394 34.1161C194.777 34.3449 194.123 34.456 193.465 34.4437C192.622 34.4653 191.787 34.2733 191.038 33.8856C190.394 33.5393 189.857 33.0233 189.485 32.3933L190.48 31.5805C190.724 32.1264 191.125 32.5869 191.633 32.9029C192.21 33.2257 192.864 33.3851 193.525 33.3639C194.145 33.3953 194.762 33.2568 195.309 32.9635C195.523 32.8449 195.7 32.668 195.818 32.4533C195.936 32.2386 195.991 31.9949 195.976 31.7503C195.978 31.5457 195.926 31.3442 195.823 31.167C195.721 30.9898 195.572 30.8435 195.394 30.7433C194.76 30.4059 194.069 30.1879 193.356 30.1003C192.396 29.9991 191.474 29.6751 190.662 29.154C190.399 28.9502 190.19 28.6861 190.05 28.3842C189.911 28.0823 189.846 27.7513 189.861 27.4191C189.858 26.916 190.01 26.4242 190.298 26.0117C190.602 25.5644 191.021 25.208 191.511 24.9805C192.102 24.7162 192.745 24.5877 193.392 24.6044C194.127 24.5602 194.86 24.7262 195.504 25.0828C196.149 25.4394 196.679 25.972 197.032 26.6183" fill="#153D8A"/>
<path d="M210.486 25.9874C211.302 26.9762 211.748 28.218 211.748 29.4997C211.748 30.7814 211.302 32.0232 210.486 33.012C210.009 33.4358 209.452 33.7611 208.848 33.9693C208.244 34.1775 207.605 34.2645 206.968 34.2252H203.898V24.7135H206.968C207.605 24.6743 208.244 24.7613 208.848 24.9694C209.452 25.1776 210.009 25.503 210.486 25.9267V25.9874ZM209.625 32.1385C210.214 31.362 210.533 30.4139 210.533 29.439C210.533 28.4642 210.214 27.5161 209.625 26.7396C209.294 26.405 208.896 26.1452 208.456 25.9778C208.017 25.8103 207.547 25.7391 207.077 25.769H205.051V33.0484H207.077C207.547 33.0783 208.017 33.0071 208.456 32.8396C208.896 32.6722 209.294 32.4124 209.625 32.0778" fill="#153D8A"/>
<path d="M220.884 33.1819V34.2617H213.993V24.75H220.666V25.8298H215.145V28.8992H219.452V29.979H215.145V33.1819H220.884Z" fill="#153D8A"/>
<path d="M234.133 33.1819V34.2617H227.533V24.75H228.685V33.1819H234.133Z" fill="#153D8A"/>
<path d="M241.206 31.6169H236.899L235.892 34.2617H234.679L238.379 24.75H239.75L243.39 34.2617H242.177L241.206 31.6169ZM240.793 30.5371L239.459 27.1643L239.01 25.8419L238.585 27.1279L237.287 30.5371H240.793Z" fill="#153D8A"/>
<path d="M256.602 34.2617H255.17L251.191 27.8923L250.184 26.0239H250.172L250.233 27.5404V34.2617H249.141V24.75H250.56L254.527 31.0952L255.547 33H255.571L255.51 31.4713V24.75H256.602V34.2617Z" fill="#153D8A"/>
<path d="M264.78 31.6169H260.46L259.453 34.2617H258.24L261.953 24.75H263.324L266.964 34.2617H265.75L264.78 31.6169ZM264.355 30.5371L263.069 27.1643L262.632 25.8419L262.22 27.1279L260.922 30.5371H264.355Z" fill="#153D8A"/>
<path d="M274.534 33.7155C273.817 34.1911 272.968 34.4287 272.108 34.3949C271.287 34.4164 270.477 34.2106 269.766 33.8005C269.102 33.3948 268.571 32.8046 268.237 32.1019C267.877 31.2838 267.691 30.3996 267.691 29.5056C267.691 28.6117 267.877 27.7275 268.237 26.9093C268.571 26.2034 269.102 25.6092 269.766 25.1987C270.469 24.7899 271.271 24.5841 272.083 24.6042C272.884 24.575 273.678 24.7682 274.376 25.1623C275.008 25.5516 275.498 26.1345 275.772 26.8244L274.631 27.3582C274.467 26.8515 274.14 26.4129 273.701 26.1103C273.263 25.8078 272.737 25.6579 272.205 25.684C271.6 25.6691 271.003 25.8247 270.482 26.1329C269.982 26.454 269.585 26.9133 269.341 27.4553C269.061 28.1016 268.924 28.8012 268.941 29.5056C268.867 30.5315 269.169 31.5493 269.79 32.3689C270.079 32.7033 270.439 32.9677 270.845 33.1422C271.251 33.3166 271.691 33.3965 272.132 33.3758C272.727 33.392 273.312 33.2224 273.806 32.8905C274.29 32.5318 274.644 32.0249 274.813 31.4468L275.966 31.8836C275.688 32.6534 275.174 33.3158 274.498 33.7762" fill="#153D8A"/>
<path d="M279.084 24.75H277.931V34.2617H279.084V24.75Z" fill="#153D8A"/>
<path d="M288.074 25.1988C288.741 25.6038 289.277 26.1939 289.615 26.8974C289.967 27.7198 290.148 28.6051 290.148 29.4997C290.148 30.3944 289.967 31.2797 289.615 32.1021C289.28 32.808 288.744 33.399 288.074 33.8006C287.369 34.2164 286.562 34.4266 285.745 34.4072C284.923 34.425 284.113 34.215 283.403 33.8006C282.739 33.395 282.208 32.8048 281.874 32.1021C281.514 31.2817 281.329 30.3956 281.329 29.4997C281.329 28.6039 281.514 27.7178 281.874 26.8974C282.211 26.197 282.742 25.6077 283.403 25.1988C284.114 24.7887 284.924 24.583 285.745 24.6044C286.561 24.5814 287.368 24.7873 288.074 25.1988ZM283.403 26.7033C282.787 27.503 282.481 28.4983 282.542 29.5058C282.486 30.5128 282.791 31.5066 283.403 32.3084C283.705 32.6263 284.068 32.8795 284.47 33.0525C284.873 33.2255 285.306 33.3148 285.745 33.3148C286.183 33.3148 286.616 33.2255 287.019 33.0525C287.421 32.8795 287.785 32.6263 288.086 32.3084C288.698 31.5066 289.003 30.5128 288.948 29.5058C289.008 28.4983 288.702 27.503 288.086 26.7033C287.786 26.3822 287.424 26.1261 287.021 25.9511C286.618 25.776 286.184 25.6857 285.745 25.6857C285.305 25.6857 284.871 25.776 284.468 25.9511C284.065 26.1261 283.703 26.3822 283.403 26.7033ZM287.31 21.4136L286.096 23.5489H285.162L285.987 21.4136H287.31Z" fill="#153D8A"/>
<path d="M299.867 34.2617H298.435L294.468 27.8923L293.461 26.0239H293.437L293.497 27.5404V34.2617H292.405V24.75H293.825L297.792 31.0952L298.811 33H298.835L298.775 31.4713V24.75H299.867V34.2617Z" fill="#153D8A"/>
<path d="M68.2935 23.7794C67.5547 22.7537 66.5471 21.9518 65.3818 21.4621C63.6601 20.7303 61.855 20.2128 60.0071 19.9213C58.2564 19.7086 56.5565 19.1913 54.9842 18.3926C54.5537 18.1514 54.196 17.7989 53.9485 17.372C53.7009 16.9452 53.5725 16.4596 53.5768 15.9662C53.5716 15.4277 53.7053 14.897 53.9651 14.4254V14.3647C54.2156 13.9272 54.5594 13.5503 54.9721 13.2607C56.2962 12.477 57.83 12.1211 59.364 12.2416C60.6564 12.1744 61.9419 12.4692 63.0758 13.093C64.2097 13.7167 65.147 14.6446 65.7821 15.7721L68.7667 13.9644C67.9296 11.9383 64.8964 8.73534 59.364 8.73534C57.4662 8.66401 55.5763 9.01627 53.8316 9.76658C52.9382 10.1597 52.1178 10.7012 51.4051 11.368C50.6805 12.0383 50.1236 12.8694 49.7794 13.7945C49.4373 14.6213 49.264 15.5082 49.2698 16.4029C49.2334 17.611 49.5587 18.8023 50.204 19.8243C50.96 20.8717 51.9938 21.687 53.1886 22.1779C54.9549 22.9277 56.8038 23.4652 58.6967 23.7794C60.3837 24.0076 62.0225 24.5075 63.5497 25.2595C63.9602 25.4659 64.3062 25.7808 64.55 26.1702C64.7939 26.5595 64.9263 27.0083 64.9328 27.4676C64.9354 27.9612 64.8188 28.4481 64.5931 28.8871L64.5203 29.0084C64.2423 29.4616 63.8542 29.8373 63.392 30.1003L63.1008 30.2702C62.0319 30.7247 60.8888 30.9797 59.728 31.0224H59.1578H58.4177C53.6375 31.0224 52.5577 28.4988 51.757 27.2492C50.8713 27.7224 48.7603 29.0691 48.7603 29.0691C50.2525 31.7382 52.7761 34.5286 58.4662 34.5286H59.2427C61.0266 34.56 62.8005 34.2555 64.4718 33.6308C65.5452 33.2226 66.5237 32.5992 67.3472 31.7988C67.963 31.2263 68.4401 30.5209 68.7424 29.7363C69.0781 28.9292 69.2473 28.0626 69.2399 27.1885C69.2818 25.9756 68.9653 24.7771 68.3299 23.743" fill="#153D8A"/>
<path d="M90.3019 23.7793C89.5631 22.7536 88.5555 21.9517 87.3901 21.462C85.669 20.7285 83.8637 20.211 82.0154 19.9212C80.2685 19.7091 78.5725 19.1917 77.0047 18.3925C76.5725 18.1532 76.2134 17.8012 75.9655 17.3739C75.7177 16.9466 75.5904 16.46 75.5974 15.9661C75.5858 15.4269 75.7199 14.8946 75.9856 14.4253V14.3646C76.2413 13.9309 76.5842 13.555 76.9926 13.2606C78.3173 12.4783 79.8507 12.1225 81.3846 12.2414C82.6774 12.1714 83.964 12.465 85.0984 13.0891C86.2328 13.7131 87.1696 14.6425 87.8026 15.772L90.7994 13.9642C89.9501 11.9381 86.9291 8.73522 81.3846 8.73522C79.4868 8.6655 77.5973 9.0177 75.8521 9.76645C74.9603 10.1624 74.1403 10.7036 73.4256 11.3679C72.7054 12.0419 72.1493 12.872 71.7999 13.7944C71.4674 14.6237 71.2985 15.5094 71.3024 16.4028C71.2625 17.6096 71.5835 18.8009 72.2245 19.8241C72.9865 20.8659 74.0184 21.6797 75.2091 22.1778C76.9793 22.9284 78.8324 23.466 80.7294 23.7793C82.4171 24.0041 84.0565 24.5041 85.5824 25.2594C85.9979 25.4712 86.3462 25.7944 86.5884 26.193C86.8305 26.5916 86.9569 27.0497 86.9534 27.516C86.9602 28.0086 86.8478 28.4956 86.6258 28.9355C86.5983 28.9739 86.5739 29.0145 86.553 29.0568C86.2737 29.5133 85.8807 29.8895 85.4125 30.1487L85.1214 30.3186C84.0567 30.7733 82.9176 31.0282 81.7607 31.0708H81.1783H80.4504C75.658 31.0708 74.5904 28.5473 73.7775 27.2976C72.8918 27.7708 70.7808 29.1175 70.7808 29.1175C72.2731 31.7866 74.8087 34.577 80.4868 34.577H81.2511C83.0351 34.6093 84.8092 34.3047 86.4802 33.6792C87.5536 33.271 88.5321 32.6476 89.3556 31.8472C89.9698 31.2709 90.4502 30.5668 90.763 29.7847C91.0945 28.9768 91.2596 28.1102 91.2483 27.237C91.2901 26.024 90.9737 24.8255 90.3383 23.7914" fill="#153D8A"/>
<path d="M110.139 9.09912V25.2957L110.285 29.542H110.248L107.785 24.8711L98.1278 9.09912H93.3354V34.1887H97.0601V17.9921L96.9145 13.7337H96.9509L99.3774 18.3682L109.071 34.1887H113.9V9.09912H110.139Z" fill="#153D8A"/>
<path d="M21.2683 0C17.0618 0 12.9498 1.24733 9.45226 3.58428C5.95471 5.92123 3.2287 9.24282 1.61896 13.129C0.009216 17.0152 -0.411967 21.2915 0.408673 25.4171C1.22931 29.5426 3.25493 33.3322 6.22934 36.3066C9.20376 39.2809 12.9934 41.3065 17.119 42.1272C21.2447 42.9478 25.521 42.5266 29.4073 40.9169C33.2935 39.3072 36.6152 36.5812 38.9522 33.0837C41.2891 29.5862 42.5365 25.4743 42.5365 21.2679C42.5365 15.6273 40.2958 10.2177 36.3072 6.22922C32.3186 2.24072 26.909 0 21.2683 0ZM21.2683 40.3763C17.486 40.3763 13.7887 39.2546 10.6441 37.153C7.49939 35.0515 5.04865 32.0646 3.6018 28.5701C2.15495 25.0755 1.77699 21.2304 2.51575 17.5211C3.25452 13.8117 5.0768 10.4048 7.75211 7.73125C10.4274 5.05768 13.8356 3.23759 17.5454 2.50119C21.2553 1.7648 25.1002 2.14518 28.5939 3.59422C32.0876 5.04327 35.073 7.49588 37.1725 10.6418C39.2721 13.7878 40.3915 17.4857 40.3891 21.2679C40.3858 26.3369 38.3699 31.1971 34.7844 34.7803C31.1989 38.3635 26.3373 40.3763 21.2683 40.3763Z" fill="#153D8A"/>
<path d="M8.55359 31.3378C9.58218 32.6531 10.8103 33.7993 12.1933 34.7348C18.0912 32.9227 24.3972 32.9227 30.295 34.7348C31.6781 33.7993 32.9062 32.6531 33.9348 31.3378C30.3841 28.3028 25.8666 26.6353 21.1957 26.6353C16.5247 26.6353 12.0072 28.3028 8.45654 31.3378" fill="#153D8A"/>
<path d="M35.4271 29.2025C36.4128 27.4505 37.059 25.5283 37.3319 23.5367C34.6264 19.9819 29.8219 16.8882 21.2685 16.8882C12.7151 16.8882 7.92276 19.9819 5.20508 23.5367C5.48161 25.5274 6.12763 27.449 7.10989 29.2025C11.1295 25.9893 16.1225 24.239 21.2685 24.239C26.4145 24.239 31.4075 25.9893 35.4271 29.2025Z" fill="#153D8A"/>
<path d="M37.453 20.0305C37.2948 17.9634 36.743 15.9456 35.8273 14.0857C34.0404 11.9644 31.8116 10.2593 29.2968 9.08954C26.7819 7.91979 24.0419 7.31372 21.2683 7.31372C18.4947 7.31372 15.7547 7.91979 13.2398 9.08954C10.725 10.2593 8.49619 11.9644 6.70933 14.0857C5.79354 15.9449 5.24563 17.9635 5.0957 20.0305C7.99537 17.3614 13.0546 14.4254 21.2683 14.4254C29.482 14.4254 34.5412 17.3614 37.453 20.0305Z" fill="#009FE3"/>
</g>
<defs>
<clipPath id="clip0_2921_16897">
<rect width="300" height="42.5358" fill="white"/>
</clipPath>
</defs>
</svg>
